# xmcd
#
# Track frame offsets: 
#        150
#        12054
#        23066
#        51459
#        78339
#        94837
#        113257
#        125202
#        138553
#        153228
#        167758
#        176608
#
# Disc length: 2492 seconds
#
# Revision: 2
# Processed by: cddbd v1.5.2PL0 Copyright (c) Steve Scherf et al.
# Submitted via: ExactAudioCopyFreeDBPlugin 1.0
#
DISCID=9209ba0c
DTITLE=Various Artist - HITS Collection CD19
DYEAR=1900
DGENRE=misc
TTITLE0=Charles Asnavour - Venicia Sin Ti
TTITLE1=Glenn Miller - Serenata A Luz De L Luna
TTITLE2=Frankie Valli and The Four Seasons - Grease
TTITLE3=Gloria Gaynor - Soy Lo Que Soy
TTITLE4=The Village People - Al Oeste
TTITLE5=Shirley Bassey - Todo por mi Misma
TTITLE6=The Driffers - Guarda la ultima  Pieza para Mi
TTITLE7=The Templations - Mi Chico
TTITLE8=Donnie Elbert - Donde Fue Nuestro Amor ?
TTITLE9=Barry Blue - Bailando Un Sábado A La Noche
TTITLE10=Box Tops - La Carta
TTITLE11=Bee Gees - Claustrofobia
EXTD=
EXTT0=
EXTT1=
EXTT2=
EXTT3=
EXTT4=
EXTT5=
EXTT6=
EXTT7=
EXTT8=
EXTT9=
EXTT10=
EXTT11=
PLAYORDER=
